#!OML:ASF E:\Style6\Style6.ASF
:FULLY-SPECIFIED
:DEGREES
2883
root 0.20125 18.2925 0.544104 9.54751 -2.63604 -3.31857
lowerback -8.44598 0.161736 3.66402
upperback -4.21712 -0.0874375 2.28757
thorax 0.365076 -0.0748424 0.294649
lowerneck -8.00464 -0.0352676 3.41976
upperneck 14.8269 0.202366 -4.77376
head 5.79722 -0.0646769 -2.0555
rclavicle 6.08778e-015 2.38542e-015
rhumerus 52.9855 25.005 -15.0827
rradius 111.574
rwrist -22.6511
rhand -7.23821 10.7857
rfingers 7.12502
rthumb 18.6417 -18.3411
lclavicle 6.08778e-015 2.38542e-015
lhumerus 11.1013 -58.2515 74.136
lradius 106.457
lwrist -5.03008
lhand -26.3833 14.4318
lfingers 7.12502
lthumb 0.175517 44.4114
rfemur 0 0 0
rtibia 0
rfoot 0 0
rtoes 0
lfemur -12.034 -25.5809 -12.6128
ltibia 16.7518
lfoot -7.67667 28.5407
ltoes -7.97309
2884
root 0.20249 18.2943 0.541374 9.54968 -2.63442 -3.32192
lowerback -8.42481 0.170839 3.67977
upperback -4.23269 -0.0745596 2.27603
thorax 0.337468 -0.0692115 0.275024
lowerneck -7.97797 -0.0479232 3.47029
upperneck 14.8382 0.17427 -4.74343
head 5.79496 -0.0730757 -2.05632
rclavicle 6.26172e-015 8.74653e-015
rhumerus 52.9801 24.9545 -15.1445
rradius 111.631
rwrist -22.4958
rhand -7.19087 10.532
rfingers 7.12502
rthumb 18.6872 -18.5904
lclavicle 6.26172e-015 8.74653e-015
lhumerus 11.15 -58.1357 74.1391
lradius 106.434
lwrist -5.00014
lhand -26.4455 14.5991
lfingers 7.12502
lthumb 0.115464 44.5788
rfemur 0 0 0
rtibia 0
rfoot 0 0
rtoes 0
lfemur -12.0377 -25.56 -12.606
ltibia 16.7418
lfoot -7.70891 28.4936
ltoes -7.66629
2885
root 0.203859 18.2941 0.538965 9.53109 -2.62921 -3.27995
lowerback -8.40047 0.167481 3.65345
upperback -4.24363 -0.0751251 2.26319
thorax 0.312853 -0.0696433 0.276442
lowerneck -7.93612 -0.0612629 3.4588
upperneck 14.8281 0.152776 -4.70659
head 5.78368 -0.0809833 -2.04401
rclavicle -2.13694e-015 2.78299e-015
rhumerus 53.0143 24.9198 -15.2099
rradius 111.603
rwrist -22.405
rhand -7.10515 10.4997
rfingers 7.12502
rthumb 18.7697 -18.6147
lclavicle -2.13694e-015 2.78299e-015
lhumerus 11.1958 -58.0359 74.1531
lradius 106.445
lwrist -5.00353
lhand -26.5709 14.9758
lfingers 7.12502
lthumb -0.00567539 44.9555
rfemur 0 0 0
rtibia 0
rfoot 0 0
rtoes 0
lfemur -12.0248 -25.5777 -12.6583
ltibia 16.7279
lfoot -7.67846 28.4995
ltoes -7.61454
2886
root 0.204589 18.293 0.536768 9.49653 -2.59943 -3.18452
lowerback -8.3717 0.134608 3.54415
upperback -4.23599 -0.109385 2.25672
thorax 0.304827 -0.0852972 0.327969
lowerneck -7.99496 -0.0551299 3.42626
upperneck 14.873 0.158058 -4.65884
head 5.80825 -0.0775371 -2.02383
rclavicle -1.16289e-014 2.06736e-014
rhumerus 53.096 24.843 -15.2029
rradius 111.488
rwrist -22.3983
rhand -7.18533 10.7882
rfingers 7.12502
rthumb 18.6926 -18.3337
lclavicle -1.16289e-014 2.06736e-014
lhumerus 11.3098 -57.8932 74.1263
lradius 106.436
lwrist -5.04811
lhand -26.7263 15.308
lfingers 7.12502
lthumb -0.155779 45.2876
rfemur 0 0 0
rtibia 0
rfoot 0 0
rtoes 0
lfemur -12.0073 -25.6232 -12.7631
ltibia 16.6977
lfoot -7.73331 28.5027
ltoes -7.47135
2887
root 0.204748 18.2924 0.534109 9.48748 -2.5607 -3.24277
lowerback -8.36795 0.122181 3.60069
upperback -4.2334 -0.130198 2.28377
thorax 0.304728 -0.0962183 0.322486
lowerneck -7.99585 -0.0491179 3.41521
upperneck 14.8716 0.162308 -4.62379
head 5.80822 -0.0735182 -2.01058
rclavicle 1.2101e-014 -3.18055e-014
rhumerus 53.1486 24.7958 -15.214
rradius 111.434
rwrist -22.3121
rhand -7.37399 10.7151
rfingers 7.12502
rthumb 18.5111 -18.4242
lclavicle 1.2101e-014 -3.18055e-014
lhumerus 11.332 -57.7256 74.1844
lradius 106.376
lwrist -5.15232
lhand -26.8361 15.3824
lfingers 7.12502
lthumb -0.261798 45.362
rfemur 0 0 0
rtibia 0
rfoot 0 0
rtoes 0
lfemur -11.9916 -25.6238 -12.6862
ltibia 16.6332
lfoot -7.61279 28.4597
ltoes -7.75176
2888
root 0.204988 18.2915 0.532349 9.45674 -2.51959 -3.23582
lowerback -8.37801 0.108397 3.6041
upperback -4.21378 -0.149865 2.27002
thorax 0.330154 -0.105731 0.304693
lowerneck -8.04076 -0.0486088 3.43684
upperneck 14.931 0.151085 -4.56389
head 5.83421 -0.0740528 -1.99681
rclavicle 8.4732e-015 -2.74323e-014
rhumerus 53.1584 24.7351 -15.2761
rradius 111.454
rwrist -22.1768
rhand -7.6348 10.1541
rfingers 7.12502
rthumb 18.2602 -19.0088
lclavicle 8.4732e-015 -2.74323e-014
lhumerus 11.3636 -57.5559 74.225
lradius 106.294
lwrist -5.24655
lhand -26.8322 15.3447
lfingers 7.12502
lthumb -0.25802 45.3243
rfemur 0 0 0
rtibia 0
rfoot 0 0
rtoes 0
lfemur -11.9624 -25.6204 -12.6967
ltibia 16.6027
lfoot -7.42051 28.4353
ltoes -8.25238
2889
root 0.205399 18.2913 0.531482 9.43467 -2.51607 -3.20034
lowerback -8.41057 0.116155 3.57812
upperback -4.19193 -0.140051 2.25244
thorax 0.371042 -0.0999283 0.301874
lowerneck -8.10526 -0.077735 3.38882
upperneck 15.025 0.104988 -4.47386
head 5.87307 -0.0934661 -1.96491
rclavicle -1.14301e-014 2.34566e-014
rhumerus 53.1615 24.5848 -15.3374
rradius 111.41
rwrist -22.1577
rhand -7.8414 9.91219
rfingers 7.12502
rthumb 18.0614 -19.2692
lclavicle -1.14301e-014 2.34566e-014
lhumerus 11.4093 -57.4341 74.2825
lradius 106.236
lwrist -5.25426
lhand -26.7427 15.1858
lfingers 7.12502
lthumb -0.171604 45.1655
rfemur 0 0 0
rtibia 0
rfoot 0 0
rtoes 0
lfemur -11.9605 -25.5991 -12.7511
ltibia 16.6331
lfoot -7.34558 28.4341
ltoes -8.63023
2890
root 0.20583 18.2915 0.529987 9.41177 -2.49355 -3.22434
lowerback -8.43407 0.118817 3.60355
upperback -4.16725 -0.140788 2.26666
thorax 0.409395 -0.0998158 0.302218
lowerneck -8.12679 -0.103968 3.36093
upperneck 15.0301 0.0694861 -4.45302
head 5.87696 -0.110989 -1.95643
rclavicle 1.11816e-015 -4.37326e-015
rhumerus 53.1769 24.362 -15.3928
rradius 111.329
rwrist -22.2379
rhand -7.90742 10.0622
rfingers 7.12502
rthumb 17.9979 -19.1251
lclavicle 1.11816e-015 -4.37326e-015
lhumerus 11.4906 -57.3265 74.3058
lradius 106.174
lwrist -5.2471
lhand -26.7753 15.1263
lfingers 7.12502
lthumb -0.203082 45.1059
rfemur 0 0 0
rtibia 0
rfoot 0 0
rtoes 0
lfemur -11.9342 -25.5628 -12.7363
ltibia 16.6408
lfoot -7.4458 28.3607
ltoes -8.33768
2891
root 0.206123 18.2925 0.529006 9.40977 -2.48866 -3.19397
lowerback -8.4608 0.108449 3.56443
upperback -4.1632 -0.15339 2.27623
thorax 0.428328 -0.105235 0.332892
lowerneck -8.05897 -0.113244 3.32567
upperneck 14.9459 0.0599454 -4.44407
head 5.83846 -0.116004 -1.94727
rclavicle 4.5969e-015 -1.19271e-015
rhumerus 53.2173 24.2366 -15.469
rradius 111.311
rwrist -22.2395
rhand -7.858 9.99814
rfingers 7.12502
rthumb 18.0455 -19.1847
lclavicle 4.5969e-015 -1.19271e-015
lhumerus 11.458 -57.2276 74.42
lradius 106.096
lwrist -5.28133
lhand -26.8888 15.2099
lfingers 7.12502
lthumb -0.312665 45.1894
rfemur 0 0 0
rtibia 0
rfoot 0 0
rtoes 0
lfemur -11.915 -25.4972 -12.7818
ltibia 16.6253
lfoot -7.17983 28.2863
ltoes -8.89055
2892
root 0.206782 18.2928 0.52863 9.40978 -2.47896 -3.16843
lowerback -8.49937 0.0939913 3.54466
upperback -4.17718 -0.172696 2.27863
thorax 0.434818 -0.114635 0.344783
lowerneck -7.94308 -0.113814 3.28682
upperneck 14.8567 0.0616966 -4.42155
head 5.79066 -0.114206 -1.93214
rclavicle 8.24956e-015 -1.63003e-014
rhumerus 53.2508 24.2253 -15.5527
rradius 111.319
rwrist -22.1581
rhand -7.9649 9.64861
rfingers 7.12502
rthumb 17.9426 -19.5437
lclavicle 8.24956e-015 -1.63003e-014
lhumerus 11.3435 -57.138 74.5833
lradius 106.026
lwrist -5.26081
lhand -26.9413 14.9629
lfingers 7.12502
lthumb -0.363409 44.9424
rfemur 0 0 0
rtibia 0
rfoot 0 0
rtoes 0
lfemur -11.909 -25.4771 -12.8096
ltibia 16.6087
lfoot -6.86568 28.2446
ltoes -9.81508
